PathFileType	4	(X/Y/Z)	C:/Users/opensim2020/Desktop/walking_exp_matlab/subject01_walking15_straight_01.trc	
DataRate	CameraRate	NumFrames	NumMarkers	Units	OrigDataRate	OrigDataStartFrame	OrigNumFrames	
100.00	100.00	5	43	mm	100.00	777	125	
Frame#	Time	LFHD			RFHD			LBHD			RBHD			C7			T10			CLAV			STRN			RBAK			LSHO			LUPA			LELB			LFRM			LWRA			LWRB			LFIN			RSHO			RUPA			RELB			RFRM			RWRA			RWRB			RFIN			LASI			RASI			LPSI			RPSI			LTHI			LKNE			LTIB			LANK			LHEE			LTOE			RTHI			RKNE			RTIB			RANK			RHEE			RTOE			*39			*40			*41			*42			
		X1	Y1	Z1	X2	Y2	Z2	X3	Y3	Z3	X4	Y4	Z4	X5	Y5	Z5	X6	Y6	Z6	X7	Y7	Z7	X8	Y8	Z8	X9	Y9	Z9	X10	Y10	Z10	X11	Y11	Z11	X12	Y12	Z12	X13	Y13	Z13	X14	Y14	Z14	X15	Y15	Z15	X16	Y16	Z16	X17	Y17	Z17	X18	Y18	Z18	X19	Y19	Z19	X20	Y20	Z20	X21	Y21	Z21	X22	Y22	Z22	X23	Y23	Z23	X24	Y24	Z24	X25	Y25	Z25	X26	Y26	Z26	X27	Y27	Z27	X28	Y28	Z28	X29	Y29	Z29	X30	Y30	Z30	X31	Y31	Z31	X32	Y32	Z32	X33	Y33	Z33	X34	Y34	Z34	X35	Y35	Z35	X36	Y36	Z36	X37	Y37	Z37	X38	Y38	Z38	X39	Y39	Z39	X40	Y40	Z40	X41	Y41	Z41	X42	Y42	Z42	X43	Y43	Z43	

110	1.090	1345.10376	527.87909	1654.49841	1448.69702	572.90424	1667.53381	1389.72034	417.93851	1616.63184	1499.88184	462.75421	1628.87585	1428.07715	386.20282	1425.03040	1454.35889	345.78757	1131.60779	1431.54395	533.84979	1357.81482	1435.48914	572.83209	1202.09790	1513.34644	329.66547	1236.58032	1272.73145	470.18518	1386.95581	1187.44458	462.66428	1205.19739	1179.57104	483.40948	1051.91138	1160.03943	583.30737	989.38055	1179.12341	717.90906	960.78101	1160.69849	681.90851	917.06366	1145.51685	762.95227	901.84198	1579.64404	465.99384	1400.80151	1684.75159	375.86569	1216.18042	1696.08472	363.75488	1095.96057	1737.73267	352.14902	982.61902	1731.07837	383.86661	841.64532	1770.37305	346.67960	863.36096	1777.13672	349.68323	774.66064	1345.42761	515.24762	924.91235	1561.80859	533.34625	931.43622	1417.34631	334.08179	939.05823	1561.01245	349.37097	938.05347	1314.98010	419.10950	595.77594	1336.62366	376.51041	465.75888	1342.50549	282.72610	299.32651	1407.44507	207.86899	96.32913	1461.30847	158.38251	81.16421	1402.05383	342.80411	34.50687	1638.97217	572.99976	610.06714	1614.72607	635.82343	467.47348	1634.40552	631.64240	294.18280	1599.84485	677.37622	86.14541	1550.75378	642.76837	33.16145	1597.69556	821.07452	87.13704	1426.72888	555.70520	1699.55139	-3101.98047	1973.15417	1023.49170	-3140.69116	2012.50269	1022.16937			 
111	1.100	1345.43799	541.52362	1653.07178	1448.59241	587.11707	1665.99805	1390.50793	432.22705	1615.06372	1500.33643	477.26874	1627.38086	1428.80225	400.24973	1423.60999	1455.58887	359.98209	1130.14148	1431.72559	547.96686	1356.32178	1435.25598	586.81256	1200.60461	1514.18250	344.14551	1234.80115	1273.12671	483.79745	1385.70996	1187.63318	476.69638	1204.27759	1179.09753	498.23691	1051.21924	1159.57458	599.53088	991.13422	1178.47705	734.72003	966.20673	1160.01819	700.02161	921.49426	1144.90100	781.36279	908.58380	1580.23584	480.71820	1399.22571	1684.92859	388.56982	1215.38318	1696.26880	375.15927	1095.30957	1737.94177	361.89227	982.26306	1731.20642	391.57483	840.82965	1770.58301	354.59280	863.08447	1777.12915	356.33701	774.29846	1344.57654	528.23779	923.58154	1560.95374	548.83453	929.64069	1419.15271	347.94504	937.84888	1562.62952	364.81189	936.53870	1314.24536	427.65656	595.77246	1336.05444	383.97260	465.93906	1342.07703	287.82678	300.94321	1406.74072	209.36368	99.13008	1460.55322	159.62694	85.07622	1401.94373	342.87839	34.52621	1640.53467	583.09528	606.39587	1613.60315	651.02789	466.86404	1634.50146	654.64032	294.51834	1599.99158	708.09033	87.83510	1551.50232	676.07703	32.42992	1595.62915	851.80316	94.75191	1426.77661	569.87573	1698.05457	-3101.97681	1973.18433	1023.50610	-3140.71948	2012.52429	1022.16602			 
112	1.110	1345.74158	555.20630	1651.62830	1448.80957	601.64014	1664.62622	1391.26294	446.01263	1613.75781	1500.93726	491.88272	1625.92810	1429.74268	414.43521	1422.25964	1456.76904	374.31805	1128.64355	1431.96204	562.09528	1354.86011	1435.03857	600.94635	1199.18164	1515.17871	358.65979	1233.01196	1273.66296	497.36151	1384.52734	1187.92480	490.67184	1203.41150	1178.69580	512.70551	1050.41785	1158.97363	615.29657	992.64868	1177.93591	750.98383	971.21704	1159.41284	717.51978	925.69141	1144.52222	799.00598	914.71912	1580.89441	495.47211	1397.56738	1685.12451	401.32544	1214.53174	1696.58020	386.78094	1094.64246	1738.25525	372.03955	981.75464	1731.31812	400.02911	839.96240	1770.73486	363.31824	862.66693	1777.22119	364.00421	773.93030	1343.76685	541.51776	922.31116	1560.07837	564.38306	927.78772	1420.95422	361.97931	936.70416	1564.24207	380.64856	935.20978	1313.45752	437.04691	595.48035	1335.38367	392.40561	465.84598	1341.60754	293.55759	302.46472	1406.01929	211.23822	101.99040	1459.61743	161.09311	89.42242	1401.80579	342.94839	34.55726	1642.69873	593.81921	603.45715	1612.64624	666.28113	466.39691	1633.93994	676.06104	294.25500	1599.58533	735.79401	89.41574	1551.28333	704.68091	32.84665	1593.30969	879.05109	100.74907	1426.91272	584.15155	1696.61938	-3101.91797	1973.09888	1023.58826	-3140.73413	2012.51965	1022.12213			 
113	1.120	1346.03906	569.52386	1650.15735	1448.92200	615.94672	1663.17896	1392.14392	460.14783	1612.33252	1501.56714	506.56961	1624.45569	1430.78223	428.69986	1420.85315	1457.94189	388.77390	1127.11450	1432.33496	576.29547	1353.42261	1435.04626	615.17651	1197.82959	1516.31689	373.24997	1231.31018	1274.21106	510.95364	1383.43542	1188.28406	504.45090	1202.56226	1178.35327	527.04974	1049.67004	1158.75159	630.87231	994.23425	1177.43298	766.70233	975.71625	1158.79663	734.31024	929.46234	1143.72107	816.05103	920.51007	1581.70178	510.32428	1395.91797	1685.45337	414.11630	1213.67212	1697.00549	398.71054	1093.87231	1738.62500	382.68530	981.13824	1731.55554	409.17581	839.02850	1770.90540	372.63129	862.05737	1777.21021	372.47815	773.30353	1343.28479	555.00702	921.17267	1559.22510	579.96234	925.95056	1422.60999	376.21735	935.57446	1565.91589	396.41641	933.92285	1312.70044	447.44971	594.98572	1334.84888	402.03067	465.52463	1341.07617	300.16785	304.04477	1405.20642	213.26387	105.28649	1458.67798	163.15465	94.09158	1401.66064	343.10898	34.62009	1643.73657	606.34009	601.42645	1611.55823	681.24609	465.81564	1633.46179	696.36981	294.47748	1598.75928	759.65503	90.53611	1550.99146	729.45404	33.08869	1590.60107	902.88831	104.64906	1427.18799	598.46887	1695.19263	-3101.85449	1973.26880	1023.46063	-3140.73145	2012.46765	1022.10046			 
114	1.130	1346.57764	583.12909	1648.90381	1449.11011	630.42517	1661.80640	1393.16077	474.24649	1611.01404	1502.40527	521.33600	1623.10413	1432.05334	443.03781	1419.48279	1459.57324	404.36151	1125.57458	1432.79956	590.61938	1352.04150	1434.99365	629.47290	1196.48218	1517.54810	387.87045	1229.68152	1275.10217	524.17297	1382.48389	1188.81567	518.08673	1201.77795	1178.24768	540.89209	1048.93567	1158.46362	645.90881	995.55011	1177.01550	781.90424	979.72589	1158.24414	750.46387	932.87683	1142.88098	832.13000	925.86957	1582.48169	525.21265	1394.24146	1685.90320	427.33774	1212.83130	1697.57141	411.01846	1093.08044	1739.07776	393.82043	980.37103	1731.90405	419.22302	838.13293	1771.29761	382.83994	861.36316	1777.38538	381.87289	772.63745	1342.56580	569.00067	920.11591	1558.32996	595.61279	924.30688	1424.23364	390.72107	934.55829	1567.68286	411.77261	933.15015	1311.95190	458.91608	594.31897	1334.28015	412.68057	465.05194	1340.35291	307.46002	305.67355	1404.25220	215.75287	108.91092	1457.56885	165.42679	99.25539	1401.59961	343.64041	34.32349	1643.71558	621.71960	600.71075	1610.67322	696.82935	465.60239	1632.30029	714.72266	293.97061	1597.81995	780.09680	90.97780	1550.48975	750.91223	32.54832	1587.88574	923.43262	106.45412	1427.44971	612.86877	1693.77515	-3102.09302	1973.41736	1023.05621	-3140.68164	2012.50891	1022.11816			 
